<?xml version="1.0" encoding="UTF-8" standalone="no"?>
<!DOCTYPE svg PUBLIC "-//W3C//DTD SVG 1.1//EN" "http://www.w3.org/Graphics/SVG/1.1/DTD/svg11.dtd">
<!-- Created with Vectornator (http://vectornator.io/) -->
<svg height="100%" stroke-miterlimit="10" style="fill-rule:nonzero;clip-rule:evenodd;stroke-linecap:round;stroke-linejoin:round;" version="1.1" viewBox="0 0 36.399 69.454" width="100%" xml:space="preserve" xmlns="http://www.w3.org/2000/svg" xmlns:xlink="http://www.w3.org/1999/xlink">
<defs/>
<g id="one-person_2">
<path d="M4.00039 19.9312C4.00039 11.1322 10.3574 3.99964 18.1994 3.99964C26.0424 3.99964 32.3994 11.1322 32.3994 19.9312C32.3994 28.7302 26.0424 35.8632 18.1994 35.8632C10.3574 35.8632 4.00039 28.7302 4.00039 19.9312Z" fill="#ffffff" fill-rule="nonzero" opacity="1" stroke="#000000" stroke-linecap="round" stroke-linejoin="round" stroke-width="3.0099"/>
<path d="M10.9864 14.8622C10.9864 12.8832 12.2904 11.2792 13.8984 11.2792C15.5074 11.2792 16.8114 12.8832 16.8114 14.8622C16.8114 16.8412 15.5074 18.4452 13.8984 18.4452C12.2904 18.4452 10.9864 16.8412 10.9864 14.8622Z" fill="#ffffff" fill-rule="nonzero" opacity="0" stroke="#000000" stroke-linecap="round" stroke-linejoin="round" stroke-width="1.61202"/>
<path d="M13.1424 15.9402C13.1424 15.3452 13.4814 14.8622 13.8984 14.8622C14.3164 14.8622 14.6554 15.3452 14.6554 15.9402C14.6554 16.5352 14.3164 17.0182 13.8984 17.0182C13.4814 17.0182 13.1424 16.5352 13.1424 15.9402Z" fill="#121313" fill-rule="nonzero" opacity="1" stroke="#000000" stroke-linecap="round" stroke-linejoin="round" stroke-width="1.61202"/>
<path d="M19.5884 14.8622C19.5884 12.8832 20.8924 11.2792 22.5004 11.2792C24.1094 11.2792 25.4134 12.8832 25.4134 14.8622C25.4134 16.8412 24.1094 18.4452 22.5004 18.4452C20.8924 18.4452 19.5884 16.8412 19.5884 14.8622Z" fill="#ffffff" fill-rule="nonzero" opacity="0" stroke="#000000" stroke-linecap="round" stroke-linejoin="round" stroke-width="1.61202"/>
<path d="M21.7444 15.9402C21.7444 15.3452 22.0834 14.8622 22.5004 14.8622C22.9184 14.8622 23.2574 15.3452 23.2574 15.9402C23.2574 16.5352 22.9184 17.0182 22.5004 17.0182C22.0834 17.0182 21.7444 16.5352 21.7444 15.9402Z" fill="#121313" fill-rule="nonzero" opacity="1" stroke="#000000" stroke-linecap="round" stroke-linejoin="round" stroke-width="1.61202"/>
<path d="M16.8114 35.8632L16.8114 54.5052" fill="#ffffff" fill-rule="nonzero" opacity="1" stroke="#000000" stroke-linecap="butt" stroke-linejoin="round" stroke-width="3.2451"/>
<path d="M6.13039 38.0852L16.8114 45.1842" fill="#ffffff" fill-rule="nonzero" opacity="1" stroke="#000000" stroke-linecap="butt" stroke-linejoin="round" stroke-width="3.2451"/>
<path d="M28.0344 38.7072L16.9674 45.1842" fill="#ffffff" fill-rule="nonzero" opacity="1" stroke="#000000" stroke-linecap="butt" stroke-linejoin="round" stroke-width="3.2451"/>
<path d="M16.9674 54.5052L6.28639 65.4532" fill="#ffffff" fill-rule="nonzero" opacity="1" stroke="#000000" stroke-linecap="butt" stroke-linejoin="round" stroke-width="3.2451"/>
<path d="M16.6614 54.5052L28.0344 64.7302" fill="#ffffff" fill-rule="nonzero" opacity="1" stroke="#000000" stroke-linecap="butt" stroke-linejoin="round" stroke-width="3.2451"/>
<path d="M13.0073 24.4284C12.9916 24.4284 14.6004 31.1646 18.0279 30.6505C20.3371 30.3041 21.7962 27.9871 22.6193 26.0161C23.0171 25.0634 23.5036 21.99 23.1771 22.9695" fill="none" opacity="1" stroke="#000000" stroke-linecap="round" stroke-linejoin="round" stroke-width="1.52881"/>
<path d="M13.179 24.9434C13.6775 23.4478 21.933 22.7671 23.5204 22.5404" fill="none" opacity="1" stroke="#000000" stroke-linecap="round" stroke-linejoin="round" stroke-width="1.52881"/>
</g>
</svg>
