<?xml version="1.0" encoding="UTF-8" standalone="no"?>
<!DOCTYPE svg PUBLIC "-//W3C//DTD SVG 1.1//EN" "http://www.w3.org/Graphics/SVG/1.1/DTD/svg11.dtd">
<!-- Created with Vectornator (http://vectornator.io/) -->
<svg height="100%" stroke-miterlimit="10" style="fill-rule:nonzero;clip-rule:evenodd;stroke-linecap:round;stroke-linejoin:round;" version="1.1" viewBox="0 0 36.399 69.454" width="100%" xml:space="preserve" xmlns="http://www.w3.org/2000/svg" xmlns:xlink="http://www.w3.org/1999/xlink">
<defs/>
<g id="Untitled">
<path d="M2.164 57.06C2.164 43.488 3.749 28.116 12.84 18.228C15.537 15.295 18.362 13.71 22.087 13.461C23.795 13.346 25.67 13.048 26.954 14.565C30.532 18.795 31.481 24.526 31.996 30.144C32.879 39.772 32.543 49.246 32.543 58.877" fill="#d8d8d8" fill-rule="nonzero" opacity="1" stroke="#000000" stroke-linecap="butt" stroke-linejoin="miter" stroke-width="1"/>
<g fill="#333333" opacity="1" stroke="none">
<path d="M8.97386 40.0014L8.97386 34.0309L11.6211 34.0309C12.1532 34.0309 12.5578 34.0845 12.8347 34.1918C13.1116 34.299 13.3329 34.4884 13.4985 34.7599C13.6642 35.0314 13.747 35.3314 13.747 35.66C13.747 36.0835 13.6099 36.4406 13.3356 36.7311C13.0614 37.0216 12.6379 37.2062 12.065 37.2849C12.274 37.3854 12.4329 37.4845 12.5415 37.5822C12.7723 37.794 12.9908 38.0587 13.1972 38.3764L14.2357 40.0014L13.242 40.0014L12.4519 38.7592C12.2211 38.4008 12.031 38.1266 11.8817 37.9366C11.7324 37.7465 11.5987 37.6135 11.4806 37.5374C11.3625 37.4614 11.2423 37.4085 11.1201 37.3786C11.0305 37.3596 10.8839 37.3501 10.6803 37.3501L9.76395 37.3501L9.76395 40.0014L8.97386 40.0014ZM9.76395 36.6659L11.4622 36.6659C11.8233 36.6659 12.1057 36.6286 12.3093 36.5539C12.513 36.4792 12.6677 36.3598 12.7736 36.1955C12.8795 36.0313 12.9324 35.8527 12.9324 35.66C12.9324 35.3776 12.83 35.1455 12.625 34.9636C12.42 34.7816 12.0962 34.6907 11.6536 34.6907L9.76395 34.6907L9.76395 36.6659Z"/>
<path d="M15.0991 40.0014L15.0991 39.1665L15.934 39.1665L15.934 40.0014L15.0991 40.0014Z"/>
<path d="M17.4368 40.0014L17.4368 34.0309L18.2268 34.0309L18.2268 40.0014L17.4368 40.0014Z"/>
<path d="M19.7337 40.0014L19.7337 39.1665L20.5686 39.1665L20.5686 40.0014L19.7337 40.0014Z"/>
<path d="M21.937 40.0014L21.937 34.0309L24.1892 34.0309C24.5856 34.0309 24.8883 34.0499 25.0974 34.0879C25.3906 34.1368 25.6363 34.2298 25.8345 34.3669C26.0327 34.504 26.1922 34.6961 26.313 34.9432C26.4338 35.1903 26.4943 35.4618 26.4943 35.7577C26.4943 36.2654 26.3327 36.6951 26.0096 37.0467C25.6865 37.3983 25.1028 37.5741 24.2584 37.5741L22.7271 37.5741L22.7271 40.0014L21.937 40.0014ZM22.7271 36.8695L24.2706 36.8695C24.781 36.8695 25.1435 36.7745 25.358 36.5845C25.5725 36.3944 25.6797 36.127 25.6797 35.7822C25.6797 35.5324 25.6166 35.3186 25.4904 35.1407C25.3641 34.9629 25.1978 34.8454 24.9915 34.7884C24.8584 34.7531 24.6127 34.7355 24.2543 34.7355L22.7271 34.7355L22.7271 36.8695Z"/>
<path d="M26.5391 40.0014L26.5391 39.1665L27.3739 39.1665L27.3739 40.0014L26.5391 40.0014Z"/>
</g>
</g>
</svg>
