<?xml version="1.0" encoding="UTF-8" standalone="no"?>
<!DOCTYPE svg PUBLIC "-//W3C//DTD SVG 1.1//EN" "http://www.w3.org/Graphics/SVG/1.1/DTD/svg11.dtd">
<!-- Created with Vectornator (http://vectornator.io/) -->
<svg xmlns="http://www.w3.org/2000/svg" viewBox="0 0 36.4 69.5" width="36.4" height="69.5">
  <g transform="scale(0.18) translate(-15, -15)">
    <path d="M52.1469 156.671C51.4926 160.597 51.366 152.52 51.3098 151.816C51.1579 149.917 50.9168 148.025 50.8075 146.124C50.3007 137.306 49.9783 128.518 51.812 119.838C56.6703 96.8425 74.2001 71.2966 100.532 72.2902C131.538 73.4603 129.282 114.428 129.664 136.581C129.772 142.861 131.836 148.66 132.007 154.83C132.053 156.481 132.83 163.739 132.175 162.866" fill="none" opacity="1" stroke="#000000" stroke-linecap="round" stroke-linejoin="round" stroke-width="2.20745"/>
    <path d="M42.7712 157.508C41.499 157.826 53.7686 158.497 54.9931 158.513C65.1518 158.648 75.3057 158.784 85.464 159.015C94.4828 159.22 103.595 159.079 112.586 159.852C119.428 160.441 126.147 161.997 133.012 162.364C140.983 162.789 149.062 161.622 156.953 163.201" fill="none" opacity="1" stroke="#000000" stroke-linecap="round" stroke-linejoin="round" stroke-width="2.20745"/>
    <path d="M67.1037 103.089C67.1037 95.1856 65.5037 109.801 65.3605 111.172C64.8182 116.362 63.4587 121.964 63.4587 127.178" fill="none" opacity="1" stroke="#000000" stroke-linecap="round" stroke-linejoin="round" stroke-width="2.20745"/>
    <path d="M64.2511 100.078C63.4388 97.6411 73.8927 98.1321 73.6014 104.833C73.4698 107.858 71.624 111.885 69.6394 114.183C68.4041 115.613 67.4597 115.68 65.6774 116.243C65.4697 116.309 64.8257 116.401 65.0435 116.401C69.2392 116.401 71.5114 122.929 73.1259 125.91C74.0661 127.646 74.8725 129.717 76.2955 131.14" fill="none" opacity="1" stroke="#000000" stroke-linecap="round" stroke-linejoin="round" stroke-width="2.20745"/>
    <path d="M87.5475 101.821C87.0159 106.606 87.7837 111.439 87.5475 116.243C87.4513 118.198 87.5426 124.037 87.8644 122.107" fill="none" opacity="1" stroke="#000000" stroke-linecap="round" stroke-linejoin="round" stroke-width="2.20745"/>
    <path d="M82.1592 102.297C84.0626 101.345 92.5459 100.981 93.0942 103.723" fill="none" opacity="1" stroke="#000000" stroke-linecap="round" stroke-linejoin="round" stroke-width="2.20745"/>
    <path d="M82.1592 126.227C81.041 126.227 87.5853 126.541 87.7059 126.544C90.1313 126.599 92.6546 126.421 94.9959 125.752" fill="none" opacity="1" stroke="#000000" stroke-linecap="round" stroke-linejoin="round" stroke-width="2.20745"/>
    <path d="M87.2305 121.631C87.2305 122.81 87.3159 123.96 87.5475 125.118" fill="none" opacity="1" stroke="#000000" stroke-linecap="round" stroke-linejoin="round" stroke-width="2.20745"/>
    <path d="M76.2955 125.91C76.5068 126.333 76.4011 126.333 76.6124 125.91" fill="none" opacity="1" stroke="#000000" stroke-linecap="round" stroke-linejoin="round" stroke-width="2.20745"/>
    <path d="M99.4333 127.336C99.3277 127.548 99.222 127.759 99.1164 127.97" fill="none" opacity=   "1" stroke="#000000" stroke-linecap="round" stroke-linejoin="round" stroke-width="2.20745"/>
    <path d="M108.467 104.991C109.272 104.991 108.942 100.936 108.942 101.504C108.942 108.327 109.155 115.121 108.942 121.948C108.936 122.154 108.916 129.925 109.259 129.238" fill="none" opacity="1" stroke="#000000" stroke-linecap="round" stroke-linejoin="round" stroke-width="2.20745"/>
    <path d="M106.406 104.516C106.406 98.5832 115.766 101.789 117.183 105.783C118.615 109.819 114.361 116.394 110.527 117.352C109.683 117.563 109.861 117.573 110.051 118.145" fill="none" opacity="1" stroke="#000000" stroke-linecap="round" stroke-linejoin="round" stroke-width="2.20745"/>
    <path d="M116.549 128.129C116.549 128.287 116.549 128.446 116.549 128.604" fill="none" opacity="1" stroke="#000000" stroke-linecap="round" stroke-linejoin="round" stroke-width="2.20745"/>
  </g>
</svg>
